<svg width="174" height="42" viewBox="0 0 174 42" fill="none" xmlns="http://www.w3.org/2000/svg">
<path d="M22.8572 35.1805C20.3595 35.1805 17.4499 34.3992 14.2914 32.1044C8.73673 28.0664 6.84285 20.7843 9.87296 15.1646C10.013 14.9052 10.2028 14.6759 10.4315 14.4898C10.6602 14.3037 10.9233 14.1645 11.2058 14.0802C11.4883 13.9958 11.7845 13.9678 12.0778 13.9979C12.3711 14.0281 12.6556 14.1157 12.915 14.2557C13.1744 14.3958 13.4037 14.5856 13.5898 14.8143C13.7759 15.043 13.9151 15.306 13.9994 15.5885C14.0838 15.871 14.1118 16.1673 14.0816 16.4606C14.0515 16.7539 13.9639 17.0383 13.8239 17.2977C11.8524 20.9428 13.1899 25.7526 16.9316 28.4737C20.1709 30.8271 23.1995 31.3073 26.1884 29.9396C28.7748 28.7558 30.5259 26.5339 30.9998 25.8809C35.816 19.2549 32.499 11.5481 26.7352 7.35796C22.8287 4.51802 17.9633 3.73037 13.7192 5.24701C13.1588 5.4475 12.5416 5.41711 12.0035 5.16255C11.4654 4.90799 11.0505 4.45014 10.85 3.88965C10.6495 3.32916 10.6799 2.71198 10.9345 2.17389C11.1891 1.6358 11.6469 1.22088 12.2074 1.02039C17.8492 -0.99704 24.2661 0.0140267 29.3738 3.7256C33.4008 6.6527 36.2201 10.6622 37.312 15.014C38.4927 19.7193 37.5418 24.5228 34.6306 28.5196C33.8144 29.6433 31.5386 32.4293 28.0552 34.022C26.4262 34.7782 24.6531 35.1734 22.8572 35.1805Z" fill="#00C9FF"/>
<path d="M19.6701 41.3025C15.625 41.277 11.6915 39.9729 8.43236 37.5767C4.40541 34.6496 1.5861 30.6401 0.494182 26.2882C-0.686485 21.583 0.264375 16.7795 3.17563 12.7827C3.9918 11.6591 6.26751 8.8746 9.75087 7.28031C12.865 5.854 17.781 5.03305 23.5132 9.19788C29.06 13.2359 30.9617 20.518 27.9316 26.1377C27.7915 26.397 27.6018 26.6262 27.3731 26.8122C27.1445 26.9981 26.8815 27.1373 26.5991 27.2216C26.3167 27.3059 26.0204 27.3338 25.7272 27.3036C25.434 27.2734 25.1497 27.1858 24.8904 27.0458C24.6311 26.9057 24.4019 26.7159 24.2159 26.4873C24.03 26.2587 23.8908 25.9956 23.8065 25.7132C23.7222 25.4308 23.6943 25.1346 23.7245 24.8414C23.7546 24.5483 23.8423 24.2639 23.9823 24.0046C25.9538 20.3596 24.6163 15.5497 20.8746 12.8302C17.6353 10.4752 14.6067 9.99505 11.6178 11.3627C9.03142 12.5466 7.28026 14.7684 6.8064 15.4229C1.99182 22.0473 5.30718 29.7558 11.0726 33.9444C14.9776 36.7843 19.8428 37.5735 24.0869 36.0553C24.3644 35.956 24.6588 35.9124 24.9532 35.9269C25.2475 35.9413 25.5362 36.0137 25.8027 36.1397C26.0691 36.2658 26.3081 36.4431 26.506 36.6615C26.7039 36.8799 26.8569 37.1352 26.9562 37.4127C27.0555 37.6902 27.0991 37.9845 27.0846 38.2789C27.0701 38.5733 26.9977 38.862 26.8717 39.1284C26.7456 39.3948 26.5684 39.6338 26.35 39.8318C26.1316 40.0297 25.8763 40.1827 25.5988 40.2819C23.6958 40.96 21.6903 41.3053 19.6701 41.3025Z" fill="#00C9FF"/>
<path d="M67.4926 30.0759C67.4926 30.4647 67.2628 30.6591 66.8032 30.6591H63.7668C63.3706 30.6412 62.987 30.5151 62.6574 30.2946C62.2849 30.0752 61.9677 29.7732 61.7303 29.4119L59.3959 25.7114C58.8381 24.8091 58.2765 24.1308 57.7113 23.6765C57.1321 23.2164 56.4095 22.9746 55.67 22.9935H52.8174V29.4388C52.8207 29.601 52.79 29.7621 52.7272 29.9116C52.6644 30.0612 52.571 30.196 52.4529 30.3073C52.3366 30.4217 52.1986 30.5117 52.047 30.5721C51.8954 30.6325 51.7334 30.6621 51.5702 30.6591H49.0774C48.9111 30.6606 48.7463 30.6277 48.5933 30.5625C48.4403 30.4974 48.3024 30.4013 48.1883 30.2803C48.0694 30.164 47.9753 30.0249 47.9115 29.8713C47.8478 29.7177 47.8158 29.5528 47.8174 29.3865V12.9047C47.8167 12.7374 47.8491 12.5715 47.9127 12.4168C47.9763 12.262 48.07 12.1213 48.1883 12.003C48.3015 11.8805 48.4391 11.7832 48.5922 11.7171C48.7453 11.6511 48.9106 11.6178 49.0774 11.6194H51.5702C51.7362 11.6172 51.9006 11.6502 52.0528 11.7163C52.205 11.7824 52.3414 11.8801 52.4529 12.003C52.5701 12.1219 52.6626 12.2627 52.7251 12.4175C52.7877 12.5722 52.819 12.7378 52.8174 12.9047V19.2565H55.67C56.403 19.2714 57.1213 19.0491 57.7176 18.6226C58.3072 18.2 58.8666 17.5133 59.3959 16.5624L61.4561 12.9016C61.9231 12.0563 62.5596 11.6279 63.3658 11.6163H66.4292C66.8518 11.6163 67.0631 11.8017 67.0631 12.1725C67.047 12.4299 66.9698 12.6798 66.8381 12.9016L63.9601 18.1139C63.593 18.8096 63.121 19.4446 62.5607 19.9966C61.9915 20.52 61.2928 20.8816 60.5369 21.0442C61.1212 21.1678 61.7208 21.5349 62.3357 22.1456C62.9449 22.7502 63.4893 23.4168 63.9601 24.1345L67.2739 29.4119C67.4037 29.6102 67.4791 29.8392 67.4926 30.0759Z" fill="#003370"/>
<path d="M69.4024 29.4388V12.9285C69.3986 12.7603 69.4288 12.5932 69.4915 12.4371C69.5542 12.281 69.6478 12.1392 69.7669 12.0204C69.882 11.9011 70.0202 11.8066 70.1731 11.7426C70.3259 11.6785 70.4902 11.6463 70.6559 11.648H73.1488C73.3161 11.6438 73.4823 11.6748 73.6369 11.739C73.7914 11.8031 73.9307 11.899 74.0458 12.0204C74.1645 12.1408 74.2579 12.2837 74.3205 12.4408C74.3831 12.5978 74.4136 12.7658 74.4103 12.9348V26.9126H85.9603C86.1248 26.91 86.2881 26.9416 86.4398 27.0054C86.5915 27.0693 86.7283 27.164 86.8414 27.2835C86.9592 27.3994 87.0523 27.5379 87.1152 27.6906C87.1781 27.8434 87.2095 28.0073 87.2075 28.1725V29.4182C87.2075 29.749 87.0761 30.0662 86.8422 30.3001C86.6083 30.534 86.2911 30.6654 85.9603 30.6654H70.6703C70.339 30.6704 70.0193 30.5439 69.7811 30.3136C69.6592 30.2033 69.5623 30.0682 69.4969 29.9173C69.4316 29.7664 69.3994 29.6032 69.4024 29.4388Z" fill="#003370"/>
<path d="M89.3612 29.4388V12.9015C89.3633 12.5683 89.4964 12.2493 89.7319 12.0135C89.9674 11.7777 90.2863 11.6441 90.6195 11.6416H93.087C93.2532 11.6404 93.418 11.672 93.5719 11.7348C93.7257 11.7976 93.8656 11.8902 93.9835 12.0073C94.1013 12.1245 94.1949 12.2638 94.2586 12.4173C94.3224 12.5708 94.355 12.7354 94.3548 12.9015V29.4118C94.3573 29.5773 94.3248 29.7415 94.2596 29.8936C94.1943 30.0457 94.0977 30.1823 93.976 30.2946C93.8589 30.4118 93.7195 30.5044 93.566 30.567C93.4125 30.6296 93.248 30.6609 93.0823 30.6591H90.6147C90.2835 30.6641 89.9638 30.5375 89.7257 30.3072C89.607 30.1964 89.5132 30.0618 89.4503 29.9121C89.3875 29.7624 89.3572 29.6011 89.3612 29.4388Z" fill="#003370"/>
<path d="M98.1647 29.3865V12.9285C98.1606 12.7599 98.1901 12.5922 98.2516 12.4352C98.3131 12.2782 98.4054 12.135 98.5229 12.0141C98.6349 11.8943 98.7707 11.7993 98.9216 11.7352C99.0725 11.671 99.2352 11.6392 99.3992 11.6417H104.791C105.151 11.6478 105.497 11.7795 105.77 12.0141C106.064 12.2387 106.282 12.5486 106.394 12.9016L110.307 24.2264L114.219 12.9016C114.331 12.549 114.548 12.2392 114.841 12.0141C115.116 11.7796 115.463 11.648 115.824 11.6417H121.22C121.383 11.6388 121.545 11.6705 121.694 11.7347C121.844 11.7989 121.978 11.8941 122.089 12.0141C122.205 12.1358 122.295 12.2793 122.356 12.4362C122.416 12.5931 122.445 12.7604 122.44 12.9285V29.3865C122.445 29.5547 122.414 29.722 122.352 29.8781C122.289 30.0342 122.195 30.176 122.076 30.2946C121.962 30.4122 121.825 30.5052 121.673 30.5679C121.522 30.6306 121.359 30.6616 121.195 30.6591H118.807C118.642 30.6615 118.479 30.6303 118.328 30.5677C118.176 30.505 118.039 30.4121 117.924 30.2946C117.805 30.1757 117.711 30.034 117.649 29.8779C117.586 29.7218 117.555 29.5547 117.559 29.3865V16.4293L112.879 29.4658C112.747 29.8023 112.522 30.0942 112.23 30.3073C111.951 30.5308 111.606 30.6547 111.249 30.6591H109.347C108.992 30.6553 108.648 30.5313 108.372 30.3073C108.082 30.0912 107.855 29.8004 107.716 29.4658L103.047 16.4293V29.3865C103.052 29.5547 103.021 29.722 102.959 29.8781C102.896 30.0342 102.802 30.176 102.683 30.2946C102.569 30.4122 102.432 30.5052 102.28 30.5679C102.128 30.6306 101.966 30.6616 101.802 30.6591H99.4151C99.2482 30.6604 99.0828 30.6284 98.9284 30.5652C98.774 30.5019 98.6337 30.4086 98.5157 30.2906C98.3978 30.1726 98.3045 30.0323 98.2412 29.8779C98.1779 29.7235 98.146 29.5581 98.1473 29.3913L98.1647 29.3865Z" fill="#003370"/>
<path d="M126.252 29.3865V12.8762C126.249 12.7122 126.281 12.5495 126.345 12.3986C126.409 12.2476 126.504 12.1118 126.624 11.9998C126.741 11.8841 126.88 11.7928 127.033 11.7313C127.185 11.6698 127.349 11.6393 127.513 11.6417H142.802C142.967 11.6394 143.13 11.6713 143.282 11.7354C143.434 11.7995 143.571 11.8944 143.684 12.0141C143.802 12.1296 143.895 12.2679 143.958 12.4204C144.02 12.573 144.051 12.7367 144.049 12.9016V14.1488C144.049 14.3125 144.017 14.4747 143.954 14.6261C143.892 14.7774 143.8 14.9149 143.684 15.0306C143.568 15.1463 143.431 15.2381 143.279 15.3005C143.128 15.3629 142.966 15.3948 142.802 15.3944H131.257V20.0632H140.659C140.824 20.0606 140.987 20.0921 141.139 20.156C141.29 20.2198 141.427 20.3145 141.54 20.4341C141.657 20.5477 141.75 20.6837 141.812 20.8341C141.875 20.9845 141.906 21.146 141.905 21.3089V22.5688C141.905 22.7325 141.873 22.8948 141.811 23.0462C141.748 23.1976 141.657 23.3352 141.541 23.451C141.425 23.5669 141.288 23.6588 141.136 23.7215C140.985 23.7841 140.823 23.8162 140.659 23.816H131.257V29.3865C131.261 29.5548 131.231 29.7221 131.168 29.8783C131.106 30.0345 131.012 30.1762 130.892 30.2946C130.778 30.4124 130.64 30.5055 130.488 30.5682C130.337 30.6309 130.174 30.6618 130.009 30.6591H127.518C127.351 30.6604 127.186 30.6284 127.031 30.5652C126.877 30.5019 126.737 30.4086 126.619 30.2906C126.501 30.1726 126.407 30.0323 126.344 29.8779C126.281 29.7236 126.249 29.5581 126.25 29.3913L126.252 29.3865Z" fill="#003370"/>
<path d="M146.211 29.4388V12.9015C146.213 12.5667 146.347 12.2462 146.585 12.0102C146.822 11.7741 147.144 11.6416 147.478 11.6416H149.944C150.111 11.6404 150.275 11.672 150.429 11.7348C150.583 11.7976 150.723 11.8902 150.841 12.0073C150.959 12.1245 151.052 12.2638 151.116 12.4173C151.18 12.5708 151.212 12.7354 151.212 12.9015V29.4118C151.214 29.5773 151.182 29.7413 151.116 29.8934C151.051 30.0454 150.955 30.1821 150.833 30.2946C150.716 30.4117 150.576 30.5043 150.422 30.5669C150.269 30.6294 150.104 30.6608 149.938 30.6591H147.472C147.141 30.6641 146.821 30.5375 146.583 30.3072C146.463 30.1971 146.368 30.0627 146.304 29.913C146.239 29.7633 146.208 29.6016 146.211 29.4388Z" fill="#003370"/>
<path d="M154.128 30.6591C153.686 30.6591 153.439 30.46 153.386 30.0616C153.404 29.8203 153.502 29.5918 153.664 29.4119L160.347 20.8857L154.049 12.9016C153.884 12.7233 153.786 12.4939 153.77 12.2518C153.77 11.8461 154.012 11.6417 154.499 11.6417H157.352C158.236 11.6417 159.009 12.0616 159.672 12.9016L163.306 17.5164L166.941 12.9016C167.594 12.0711 168.367 11.6512 169.26 11.6417H172.112C172.599 11.6417 172.843 11.8461 172.843 12.2518C172.824 12.4932 172.726 12.7216 172.564 12.9016L166.264 20.8857L172.947 29.4119C173.097 29.5639 173.194 29.7591 173.226 29.9697C173.234 30.0739 173.216 30.1782 173.174 30.274C173.077 30.5307 172.846 30.6591 172.485 30.6591H169.661C168.776 30.6591 168.007 30.2434 167.352 29.4119L163.307 24.2534L159.263 29.4119C158.61 30.2444 157.841 30.6602 156.955 30.6591H154.128Z" fill="#003370"/>
</svg>
