<svg width="242" height="132" viewBox="0 0 242 132" fill="none" xmlns="http://www.w3.org/2000/svg">
<mask id="path-1-inside-1_1196_125" fill="white">
<path d="M127.522 66.0511C122.862 66.0511 117.426 64.5914 111.513 60.2945C101.161 52.7697 97.609 39.2226 103.253 28.763C103.689 27.9555 104.428 27.3543 105.307 27.0917C106.187 26.8291 107.134 26.9266 107.942 27.3628C108.749 27.7989 109.351 28.538 109.613 29.4174C109.876 30.2968 109.778 31.2445 109.342 32.052C105.338 39.4639 108.02 49.1997 115.584 54.6967C121.997 59.3662 128.301 60.3464 134.286 57.6102C139.478 55.2434 142.953 50.8122 143.9 49.5081C148.176 43.608 149.544 36.8467 147.812 29.9632C146.151 23.3453 141.775 17.1826 135.49 12.6139C127.73 6.97337 118.055 5.40977 109.608 8.43314C108.744 8.74213 107.792 8.69516 106.962 8.30257C106.133 7.90997 105.493 7.20389 105.184 6.33968C104.875 5.47547 104.922 4.52391 105.315 3.69433C105.707 2.86475 106.413 2.2251 107.278 1.91611C117.881 -1.87684 129.947 0.0318416 139.557 7.01612C147.156 12.5376 152.469 20.0899 154.522 28.2774C156.736 37.094 154.949 46.0817 149.495 53.5851C147.968 55.6954 143.692 60.9145 137.163 63.9104C134.141 65.3084 130.852 66.0386 127.522 66.0511Z"/>
</mask>
<path d="M127.522 66.0511C122.862 66.0511 117.426 64.5914 111.513 60.2945C101.161 52.7697 97.609 39.2226 103.253 28.763C103.689 27.9555 104.428 27.3543 105.307 27.0917C106.187 26.8291 107.134 26.9266 107.942 27.3628C108.749 27.7989 109.351 28.538 109.613 29.4174C109.876 30.2968 109.778 31.2445 109.342 32.052C105.338 39.4639 108.02 49.1997 115.584 54.6967C121.997 59.3662 128.301 60.3464 134.286 57.6102C139.478 55.2434 142.953 50.8122 143.9 49.5081C148.176 43.608 149.544 36.8467 147.812 29.9632C146.151 23.3453 141.775 17.1826 135.49 12.6139C127.73 6.97337 118.055 5.40977 109.608 8.43314C108.744 8.74213 107.792 8.69516 106.962 8.30257C106.133 7.90997 105.493 7.20389 105.184 6.33968C104.875 5.47547 104.922 4.52391 105.315 3.69433C105.707 2.86475 106.413 2.2251 107.278 1.91611C117.881 -1.87684 129.947 0.0318416 139.557 7.01612C147.156 12.5376 152.469 20.0899 154.522 28.2774C156.736 37.094 154.949 46.0817 149.495 53.5851C147.968 55.6954 143.692 60.9145 137.163 63.9104C134.141 65.3084 130.852 66.0386 127.522 66.0511Z" fill="#00C9FF" stroke="#00C9FF" stroke-width="2" mask="url(#path-1-inside-1_1196_125)"/>
<mask id="path-2-inside-2_1196_125" fill="white">
<path d="M121.369 77.8545C113.755 77.8037 106.352 75.345 100.22 70.8305C92.6254 65.3091 87.3085 57.7568 85.2563 49.5693C83.0453 40.7526 84.8318 31.7681 90.2861 24.2616C91.813 22.1513 96.0885 16.9322 102.618 13.9363C108.42 11.2886 117.56 9.76164 128.271 17.546C138.626 25.0709 142.178 38.618 136.516 49.0776C136.068 49.8625 135.331 50.4409 134.462 50.6892C133.593 50.9375 132.661 50.8359 131.866 50.4063C131.071 49.9767 130.476 49.253 130.207 48.3901C129.939 47.5271 130.019 46.5934 130.43 45.7885C134.433 38.3767 131.749 28.6409 124.187 23.1439C117.774 18.4744 111.468 17.4911 105.482 20.2304C100.291 22.5972 96.8153 27.0284 95.8717 28.3324C86.258 41.5558 92.8178 56.9048 104.282 65.2328C112.042 70.8733 121.714 72.4369 130.161 69.4135C131.026 69.1033 131.978 69.1493 132.809 69.5413C133.639 69.9333 134.28 70.6393 134.591 71.5039C134.901 72.3686 134.855 73.321 134.463 74.1517C134.071 74.9824 133.365 75.6234 132.5 75.9336C128.928 77.2093 125.162 77.8591 121.369 77.8545Z"/>
</mask>
<path d="M121.369 77.8545C113.755 77.8037 106.352 75.345 100.22 70.8305C92.6254 65.3091 87.3085 57.7568 85.2563 49.5693C83.0453 40.7526 84.8318 31.7681 90.2861 24.2616C91.813 22.1513 96.0885 16.9322 102.618 13.9363C108.42 11.2886 117.56 9.76164 128.271 17.546C138.626 25.0709 142.178 38.618 136.516 49.0776C136.068 49.8625 135.331 50.4409 134.462 50.6892C133.593 50.9375 132.661 50.8359 131.866 50.4063C131.071 49.9767 130.476 49.253 130.207 48.3901C129.939 47.5271 130.019 46.5934 130.43 45.7885C134.433 38.3767 131.749 28.6409 124.187 23.1439C117.774 18.4744 111.468 17.4911 105.482 20.2304C100.291 22.5972 96.8153 27.0284 95.8717 28.3324C86.258 41.5558 92.8178 56.9048 104.282 65.2328C112.042 70.8733 121.714 72.4369 130.161 69.4135C131.026 69.1033 131.978 69.1493 132.809 69.5413C133.639 69.9333 134.28 70.6393 134.591 71.5039C134.901 72.3686 134.855 73.321 134.463 74.1517C134.071 74.9824 133.365 75.6234 132.5 75.9336C128.928 77.2093 125.162 77.8591 121.369 77.8545Z" fill="#00C9FF" stroke="#00C9FF" stroke-width="2" mask="url(#path-2-inside-2_1196_125)"/>
<mask id="path-3-inside-3_1196_125" fill="white">
<path d="M37.9235 130.379C37.9235 131.13 37.4807 131.502 36.595 131.502H30.7438C29.9801 131.47 29.2404 131.226 28.606 130.8C27.8883 130.378 27.2771 129.797 26.8195 129.102L22.3211 121.971C21.2461 120.233 20.164 118.925 19.0748 118.05C17.9592 117.162 16.5665 116.696 15.1414 116.734H9.64433V129.151C9.6504 129.463 9.59105 129.774 9.47008 130.062C9.34912 130.35 9.16922 130.61 8.94193 130.825C8.71731 131.049 8.44987 131.225 8.15553 131.344C7.86119 131.462 7.54597 131.521 7.2287 131.515H2.42797C2.10773 131.518 1.79023 131.455 1.49541 131.33C1.20059 131.205 0.934792 131.021 0.714713 130.788C0.485649 130.563 0.304301 130.294 0.18151 129.998C0.05872 129.702 -0.0029767 129.383 0.000110379 129.062V97.3018C-0.00253735 96.9792 0.0593146 96.6592 0.182032 96.3608C0.30475 96.0624 0.485849 95.7916 0.714713 95.5641C0.932753 95.3278 1.19781 95.1397 1.49286 95.0119C1.78791 94.8841 2.10644 94.8194 2.42797 94.822H7.2287C7.5486 94.8183 7.86566 94.8825 8.1589 95.0104C8.45214 95.1384 8.71487 95.3271 8.92972 95.5641C9.38385 96.0281 9.6363 96.6526 9.63212 97.3018V109.527H15.1291C16.5416 109.555 17.9253 109.126 19.0748 108.305C20.2108 107.491 21.2889 106.167 22.3089 104.335L26.2789 97.2835C27.1788 95.6547 28.4004 94.8281 29.9436 94.8037H35.8468C36.6612 94.8037 37.0684 95.161 37.0684 95.8756C37.0383 96.3724 36.8907 96.8549 36.6378 97.2835L31.1011 107.328C30.3927 108.668 29.4833 109.891 28.4045 110.956C27.3072 111.964 25.9611 112.662 24.5046 112.977C25.6305 113.216 26.7849 113.922 27.9677 115.097C29.1428 116.262 30.1929 117.546 31.1011 118.93L37.4868 129.102C37.7404 129.483 37.8909 129.923 37.9235 130.379Z"/>
</mask>
<path d="M37.9235 130.379C37.9235 131.13 37.4807 131.502 36.595 131.502H30.7438C29.9801 131.47 29.2404 131.226 28.606 130.8C27.8883 130.378 27.2771 129.797 26.8195 129.102L22.3211 121.971C21.2461 120.233 20.164 118.925 19.0748 118.05C17.9592 117.162 16.5665 116.696 15.1414 116.734H9.64433V129.151C9.6504 129.463 9.59105 129.774 9.47008 130.062C9.34912 130.35 9.16922 130.61 8.94193 130.825C8.71731 131.049 8.44987 131.225 8.15553 131.344C7.86119 131.462 7.54597 131.521 7.2287 131.515H2.42797C2.10773 131.518 1.79023 131.455 1.49541 131.33C1.20059 131.205 0.934792 131.021 0.714713 130.788C0.485649 130.563 0.304301 130.294 0.18151 129.998C0.05872 129.702 -0.0029767 129.383 0.000110379 129.062V97.3018C-0.00253735 96.9792 0.0593146 96.6592 0.182032 96.3608C0.30475 96.0624 0.485849 95.7916 0.714713 95.5641C0.932753 95.3278 1.19781 95.1397 1.49286 95.0119C1.78791 94.8841 2.10644 94.8194 2.42797 94.822H7.2287C7.5486 94.8183 7.86566 94.8825 8.1589 95.0104C8.45214 95.1384 8.71487 95.3271 8.92972 95.5641C9.38385 96.0281 9.6363 96.6526 9.63212 97.3018V109.527H15.1291C16.5416 109.555 17.9253 109.126 19.0748 108.305C20.2108 107.491 21.2889 106.167 22.3089 104.335L26.2789 97.2835C27.1788 95.6547 28.4004 94.8281 29.9436 94.8037H35.8468C36.6612 94.8037 37.0684 95.161 37.0684 95.8756C37.0383 96.3724 36.8907 96.8549 36.6378 97.2835L31.1011 107.328C30.3927 108.668 29.4833 109.891 28.4045 110.956C27.3072 111.964 25.9611 112.662 24.5046 112.977C25.6305 113.216 26.7849 113.922 27.9677 115.097C29.1428 116.262 30.1929 117.546 31.1011 118.93L37.4868 129.102C37.7404 129.483 37.8909 129.923 37.9235 130.379Z" fill="#00C9FF" stroke="#00C9FF" stroke-width="2" mask="url(#path-3-inside-3_1196_125)"/>
<mask id="path-4-inside-4_1196_125" fill="white">
<path d="M41.6034 129.151V97.3386C41.5953 97.0114 41.6542 96.6859 41.7765 96.3823C41.8989 96.0788 42.0822 95.8035 42.315 95.5734C42.5377 95.3456 42.8044 95.1656 43.099 95.0443C43.3935 94.9231 43.7097 94.863 44.0282 94.868H48.8351C49.1521 94.8632 49.4667 94.9243 49.759 95.0473C50.0512 95.1703 50.3148 95.3526 50.533 95.5826C50.7629 95.8144 50.9436 96.0902 51.0643 96.3935C51.185 96.6968 51.2432 97.0214 51.2354 97.3477V124.28H73.4984C73.8155 124.275 74.13 124.336 74.4223 124.459C74.7145 124.582 74.9781 124.765 75.1964 124.995C75.4226 125.218 75.6014 125.485 75.7221 125.78C75.8428 126.074 75.9028 126.39 75.8988 126.708V129.111C75.8996 129.427 75.8381 129.74 75.7178 130.031C75.5975 130.323 75.4207 130.588 75.1977 130.812C74.9747 131.035 74.7098 131.212 74.4182 131.333C74.1266 131.453 73.814 131.515 73.4984 131.515H44.0282C43.3899 131.524 42.7739 131.281 42.315 130.837C42.0826 130.623 41.8988 130.362 41.7761 130.071C41.6533 129.78 41.5945 129.467 41.6034 129.151V129.151Z"/>
</mask>
<path d="M41.6034 129.151V97.3386C41.5953 97.0114 41.6542 96.6859 41.7765 96.3823C41.8989 96.0788 42.0822 95.8035 42.315 95.5734C42.5377 95.3456 42.8044 95.1656 43.099 95.0443C43.3935 94.9231 43.7097 94.863 44.0282 94.868H48.8351C49.1521 94.8632 49.4667 94.9243 49.759 95.0473C50.0512 95.1703 50.3148 95.3526 50.533 95.5826C50.7629 95.8144 50.9436 96.0902 51.0643 96.3935C51.185 96.6968 51.2432 97.0214 51.2354 97.3477V124.28H73.4984C73.8155 124.275 74.13 124.336 74.4223 124.459C74.7145 124.582 74.9781 124.765 75.1964 124.995C75.4226 125.218 75.6014 125.485 75.7221 125.78C75.8428 126.074 75.9028 126.39 75.8988 126.708V129.111C75.8996 129.427 75.8381 129.74 75.7178 130.031C75.5975 130.323 75.4207 130.588 75.1977 130.812C74.9747 131.035 74.7098 131.212 74.4182 131.333C74.1266 131.453 73.814 131.515 73.4984 131.515H44.0282C43.3899 131.524 42.7739 131.281 42.315 130.837C42.0826 130.623 41.8988 130.362 41.7761 130.071C41.6533 129.78 41.5945 129.467 41.6034 129.151V129.151Z" fill="#00C9FF" stroke="#00C9FF" stroke-width="2" mask="url(#path-4-inside-4_1196_125)"/>
<mask id="path-5-inside-5_1196_125" fill="white">
<path d="M80.0644 129.151V97.2864C80.0684 96.6442 80.325 96.0295 80.7788 95.5751C81.2326 95.1208 81.847 94.8633 82.4892 94.8585H87.241C87.5615 94.8553 87.8794 94.9158 88.1763 95.0364C88.4731 95.1571 88.7431 95.3356 88.9704 95.5615C89.1977 95.7874 89.3779 96.0562 89.5004 96.3523C89.6229 96.6484 89.6854 96.9659 89.6842 97.2864V129.102C89.6881 129.42 89.6251 129.736 89.4994 130.028C89.3737 130.321 89.188 130.584 88.9543 130.8C88.731 131.027 88.4643 131.208 88.17 131.331C87.8758 131.453 87.5599 131.516 87.241 131.515H82.4892C81.8509 131.524 81.2348 131.28 80.7759 130.837C80.5436 130.623 80.3598 130.362 80.237 130.071C80.1143 129.78 80.0554 129.466 80.0644 129.151V129.151Z"/>
</mask>
<path d="M80.0644 129.151V97.2864C80.0684 96.6442 80.325 96.0295 80.7788 95.5751C81.2326 95.1208 81.847 94.8633 82.4892 94.8585H87.241C87.5615 94.8553 87.8794 94.9158 88.1763 95.0364C88.4731 95.1571 88.7431 95.3356 88.9704 95.5615C89.1977 95.7874 89.3779 96.0562 89.5004 96.3523C89.6229 96.6484 89.6854 96.9659 89.6842 97.2864V129.102C89.6881 129.42 89.6251 129.736 89.4994 130.028C89.3737 130.321 89.188 130.584 88.9543 130.8C88.731 131.027 88.4643 131.208 88.17 131.331C87.8758 131.453 87.5599 131.516 87.241 131.515H82.4892C81.8509 131.524 81.2348 131.28 80.7759 130.837C80.5436 130.623 80.3598 130.362 80.237 130.071C80.1143 129.78 80.0554 129.466 80.0644 129.151V129.151Z" fill="#00C9FF" stroke="#00C9FF" stroke-width="2" mask="url(#path-5-inside-5_1196_125)"/>
<mask id="path-6-inside-6_1196_125" fill="white">
<path d="M97.029 129.05V97.3386C97.0207 97.0132 97.0774 96.6895 97.196 96.3864C97.3145 96.0832 97.4924 95.8069 97.7192 95.5734C97.9351 95.3429 98.197 95.1602 98.4879 95.0371C98.7787 94.914 99.0922 94.8533 99.408 94.8588H109.81C110.503 94.8701 111.17 95.1228 111.697 95.5734C112.265 96.0068 112.685 96.6052 112.9 97.2867L120.44 119.11L127.977 97.2867C128.191 96.6054 128.61 96.007 129.177 95.5734C129.705 95.1226 130.374 94.8699 131.068 94.8588H141.469C141.783 94.8528 142.094 94.9133 142.383 95.0365C142.671 95.1597 142.93 95.3427 143.143 95.5734C143.366 95.8086 143.541 96.0856 143.658 96.3885C143.774 96.6914 143.83 97.0143 143.821 97.3386V129.05C143.829 129.374 143.772 129.697 143.651 129.998C143.53 130.299 143.349 130.572 143.119 130.8C142.898 131.027 142.634 131.206 142.342 131.327C142.05 131.448 141.737 131.508 141.421 131.503H136.818C136.502 131.508 136.188 131.448 135.895 131.327C135.603 131.207 135.338 131.027 135.117 130.8C134.887 130.572 134.706 130.299 134.585 129.998C134.464 129.697 134.406 129.374 134.415 129.05V104.085L125.397 129.203C125.143 129.853 124.707 130.416 124.142 130.825C123.606 131.255 122.941 131.494 122.254 131.503H118.59C117.904 131.494 117.242 131.255 116.708 130.825C116.149 130.409 115.713 129.848 115.447 129.203L106.45 104.085V129.05C106.459 129.374 106.401 129.697 106.28 129.998C106.159 130.299 105.978 130.572 105.748 130.8C105.528 131.028 105.263 131.207 104.97 131.328C104.678 131.449 104.363 131.508 104.047 131.503H99.4569C99.1353 131.505 98.8166 131.444 98.5191 131.322C98.2215 131.2 97.9512 131.02 97.7239 130.792C97.4965 130.565 97.3167 130.295 97.1948 129.997C97.0728 129.7 97.0113 129.381 97.0137 129.059L97.029 129.05Z"/>
</mask>
<path d="M97.029 129.05V97.3386C97.0207 97.0132 97.0774 96.6895 97.196 96.3864C97.3145 96.0832 97.4924 95.8069 97.7192 95.5734C97.9351 95.3429 98.197 95.1602 98.4879 95.0371C98.7787 94.914 99.0922 94.8533 99.408 94.8588H109.81C110.503 94.8701 111.17 95.1228 111.697 95.5734C112.265 96.0068 112.685 96.6052 112.9 97.2867L120.44 119.11L127.977 97.2867C128.191 96.6054 128.61 96.007 129.177 95.5734C129.705 95.1226 130.374 94.8699 131.068 94.8588H141.469C141.783 94.8528 142.094 94.9133 142.383 95.0365C142.671 95.1597 142.93 95.3427 143.143 95.5734C143.366 95.8086 143.541 96.0856 143.658 96.3885C143.774 96.6914 143.83 97.0143 143.821 97.3386V129.05C143.829 129.374 143.772 129.697 143.651 129.998C143.53 130.299 143.349 130.572 143.119 130.8C142.898 131.027 142.634 131.206 142.342 131.327C142.05 131.448 141.737 131.508 141.421 131.503H136.818C136.502 131.508 136.188 131.448 135.895 131.327C135.603 131.207 135.338 131.027 135.117 130.8C134.887 130.572 134.706 130.299 134.585 129.998C134.464 129.697 134.406 129.374 134.415 129.05V104.085L125.397 129.203C125.143 129.853 124.707 130.416 124.142 130.825C123.606 131.255 122.941 131.494 122.254 131.503H118.59C117.904 131.494 117.242 131.255 116.708 130.825C116.149 130.409 115.713 129.848 115.447 129.203L106.45 104.085V129.05C106.459 129.374 106.401 129.697 106.28 129.998C106.159 130.299 105.978 130.572 105.748 130.8C105.528 131.028 105.263 131.207 104.97 131.328C104.678 131.449 104.363 131.508 104.047 131.503H99.4569C99.1353 131.505 98.8166 131.444 98.5191 131.322C98.2215 131.2 97.9512 131.02 97.7239 130.792C97.4965 130.565 97.3167 130.295 97.1948 129.997C97.0728 129.7 97.0113 129.381 97.0137 129.059L97.029 129.05Z" fill="#00C9FF" stroke="#00C9FF" stroke-width="2" mask="url(#path-6-inside-6_1196_125)"/>
<mask id="path-7-inside-7_1196_125" fill="white">
<path d="M151.153 129.05V97.2347C151.148 96.9191 151.209 96.6059 151.333 96.3155C151.456 96.025 151.64 95.7639 151.871 95.5489C152.096 95.3253 152.363 95.1491 152.658 95.0305C152.952 94.912 153.267 94.8536 153.584 94.8587H183.045C183.362 94.8534 183.677 94.9142 183.969 95.0373C184.262 95.1603 184.525 95.3429 184.743 95.5733C184.971 95.7962 185.15 96.0631 185.272 96.3576C185.393 96.6521 185.453 96.9681 185.448 97.2866V99.687C185.448 100.324 185.195 100.936 184.745 101.386C184.294 101.837 183.682 102.09 183.045 102.09H160.788V111.084H178.907C179.543 111.092 180.15 111.349 180.598 111.801C181.045 112.252 181.298 112.861 181.301 113.497V115.925C181.301 116.561 181.048 117.172 180.598 117.623C180.148 118.074 179.538 118.327 178.901 118.328H160.782V129.059C160.791 129.384 160.733 129.706 160.612 130.007C160.491 130.308 160.31 130.581 160.08 130.809C159.862 131.035 159.6 131.214 159.311 131.335C159.022 131.457 158.711 131.518 158.397 131.515H153.596C153.275 131.517 152.956 131.456 152.658 131.334C152.361 131.212 152.091 131.032 151.863 130.805C151.636 130.577 151.456 130.307 151.334 130.009C151.212 129.712 151.151 129.393 151.153 129.072V129.05Z"/>
</mask>
<path d="M151.153 129.05V97.2347C151.148 96.9191 151.209 96.6059 151.333 96.3155C151.456 96.025 151.64 95.7639 151.871 95.5489C152.096 95.3253 152.363 95.1491 152.658 95.0305C152.952 94.912 153.267 94.8536 153.584 94.8587H183.045C183.362 94.8534 183.677 94.9142 183.969 95.0373C184.262 95.1603 184.525 95.3429 184.743 95.5733C184.971 95.7962 185.15 96.0631 185.272 96.3576C185.393 96.6521 185.453 96.9681 185.448 97.2866V99.687C185.448 100.324 185.195 100.936 184.745 101.386C184.294 101.837 183.682 102.09 183.045 102.09H160.788V111.084H178.907C179.543 111.092 180.15 111.349 180.598 111.801C181.045 112.252 181.298 112.861 181.301 113.497V115.925C181.301 116.561 181.048 117.172 180.598 117.623C180.148 118.074 179.538 118.327 178.901 118.328H160.782V129.059C160.791 129.384 160.733 129.706 160.612 130.007C160.491 130.308 160.31 130.581 160.08 130.809C159.862 131.035 159.6 131.214 159.311 131.335C159.022 131.457 158.711 131.518 158.397 131.515H153.596C153.275 131.517 152.956 131.456 152.658 131.334C152.361 131.212 152.091 131.032 151.863 130.805C151.636 130.577 151.456 130.307 151.334 130.009C151.212 129.712 151.151 129.393 151.153 129.072V129.05Z" fill="#00C9FF" stroke="#00C9FF" stroke-width="2" mask="url(#path-7-inside-7_1196_125)"/>
<mask id="path-8-inside-8_1196_125" fill="white">
<path d="M189.614 129.151V97.2864C189.618 96.6442 189.875 96.0295 190.329 95.5751C190.782 95.1208 191.397 94.8633 192.039 94.8585H196.794C197.114 94.8553 197.432 94.9158 197.729 95.0364C198.026 95.1571 198.296 95.3356 198.523 95.5615C198.75 95.7874 198.931 96.0562 199.053 96.3523C199.176 96.6484 199.238 96.9659 199.237 97.2864V129.102C199.242 129.42 199.179 129.736 199.053 130.029C198.927 130.321 198.741 130.584 198.507 130.8C198.282 131.026 198.013 131.205 197.717 131.326C197.421 131.447 197.104 131.507 196.785 131.502H192.03C191.391 131.512 190.775 131.268 190.316 130.824C190.087 130.611 189.906 130.352 189.785 130.063C189.664 129.775 189.606 129.464 189.614 129.151V129.151Z"/>
</mask>
<path d="M189.614 129.151V97.2864C189.618 96.6442 189.875 96.0295 190.329 95.5751C190.782 95.1208 191.397 94.8633 192.039 94.8585H196.794C197.114 94.8553 197.432 94.9158 197.729 95.0364C198.026 95.1571 198.296 95.3356 198.523 95.5615C198.75 95.7874 198.931 96.0562 199.053 96.3523C199.176 96.6484 199.238 96.9659 199.237 97.2864V129.102C199.242 129.42 199.179 129.736 199.053 130.029C198.927 130.321 198.741 130.584 198.507 130.8C198.282 131.026 198.013 131.205 197.717 131.326C197.421 131.447 197.104 131.507 196.785 131.502H192.03C191.391 131.512 190.775 131.268 190.316 130.824C190.087 130.611 189.906 130.352 189.785 130.063C189.664 129.775 189.606 129.464 189.614 129.151V129.151Z" fill="#00C9FF" stroke="#00C9FF" stroke-width="2" mask="url(#path-8-inside-8_1196_125)"/>
<mask id="path-9-inside-9_1196_125" fill="white">
<path d="M204.872 131.514C204.021 131.514 203.543 131.132 203.439 130.366C203.475 129.901 203.663 129.461 203.974 129.114L216.855 112.681L204.719 97.2985C204.401 96.9555 204.211 96.5132 204.182 96.0464C204.182 95.2615 204.646 94.8706 205.586 94.8706H211.083C212.787 94.8706 214.278 95.6799 215.554 97.2985L222.554 106.167L229.553 97.2863C230.816 95.686 232.306 94.8767 234.024 94.8584H239.521C240.458 94.8584 240.926 95.2503 240.926 96.0342C240.891 96.4989 240.703 96.939 240.392 97.2863L228.252 112.669L241.131 129.102C241.488 129.545 241.668 129.902 241.668 130.174C241.682 130.375 241.647 130.577 241.567 130.763C241.381 131.255 240.935 131.502 240.239 131.502H234.794C233.092 131.502 231.61 130.702 230.347 129.102L222.554 119.161L214.76 129.102C213.5 130.71 212.018 131.514 210.314 131.514H204.872Z"/>
</mask>
<path d="M204.872 131.514C204.021 131.514 203.543 131.132 203.439 130.366C203.475 129.901 203.663 129.461 203.974 129.114L216.855 112.681L204.719 97.2985C204.401 96.9555 204.211 96.5132 204.182 96.0464C204.182 95.2615 204.646 94.8706 205.586 94.8706H211.083C212.787 94.8706 214.278 95.6799 215.554 97.2985L222.554 106.167L229.553 97.2863C230.816 95.686 232.306 94.8767 234.024 94.8584H239.521C240.458 94.8584 240.926 95.2503 240.926 96.0342C240.891 96.4989 240.703 96.939 240.392 97.2863L228.252 112.669L241.131 129.102C241.488 129.545 241.668 129.902 241.668 130.174C241.682 130.375 241.647 130.577 241.567 130.763C241.381 131.255 240.935 131.502 240.239 131.502H234.794C233.092 131.502 231.61 130.702 230.347 129.102L222.554 119.161L214.76 129.102C213.5 130.71 212.018 131.514 210.314 131.514H204.872Z" fill="#00C9FF" stroke="#00C9FF" stroke-width="2" mask="url(#path-9-inside-9_1196_125)"/>
</svg>
