<svg width="14" height="13" viewBox="0 0 14 13" fill="none" xmlns="http://www.w3.org/2000/svg">
<path d="M7.05547 8.84373C8.44308 8.84373 9.56797 7.71884 9.56797 6.33123C9.56797 4.94361 8.44308 3.81873 7.05547 3.81873C5.66785 3.81873 4.54297 4.94361 4.54297 6.33123C4.54297 7.71884 5.66785 8.84373 7.05547 8.84373Z" fill="white"/>
<path d="M7.68379 1.34952V0.0499268H6.42754V1.34952C5.32223 1.49065 4.29504 1.99471 3.50712 2.78263C2.7192 3.57055 2.21513 4.59774 2.074 5.70305H0.774414V6.9593H2.074C2.21493 8.0647 2.71892 9.092 3.50688 9.87996C4.29484 10.6679 5.32215 11.1719 6.42754 11.3128V12.6124H7.68379V11.3128C8.78922 11.172 9.81659 10.6681 10.6046 9.88008C11.3925 9.0921 11.8965 8.06474 12.0373 6.9593H13.3369V5.70305H12.0373C11.8964 4.59766 11.3924 3.57035 10.6044 2.78239C9.81649 1.99444 8.78918 1.49044 7.68379 1.34952V1.34952ZM7.05566 10.0999C4.9772 10.0999 3.28691 8.40964 3.28691 6.33118C3.28691 4.25271 4.9772 2.56243 7.05566 2.56243C9.13413 2.56243 10.8244 4.25271 10.8244 6.33118C10.8244 8.40964 9.13413 10.0999 7.05566 10.0999Z" fill="white"/>
</svg>
