<svg width="21" height="21" viewBox="0 0 21 21" fill="none" xmlns="http://www.w3.org/2000/svg">
<path d="M20.7865 4.56899V17.217C20.7865 18.1637 20.4115 19.0716 19.744 19.741C19.0765 20.4104 18.1712 20.7865 17.2272 20.7865H4.59158C4.27847 20.7868 3.9684 20.7249 3.67925 20.6044C3.3901 20.4839 3.12757 20.3072 2.90682 20.0845L0.700054 17.8714C0.476567 17.6486 0.29956 17.3834 0.179375 17.0913C0.0591894 16.7992 -0.00178056 16.4859 3.95824e-05 16.1699V3.56952C3.95824e-05 2.62283 0.375036 1.7149 1.04254 1.04549C1.71004 0.376074 2.61537 7.47147e-07 3.55937 7.47147e-07H16.1713C16.4844 -0.000248072 16.7944 0.0616528 17.0836 0.182137C17.3727 0.302621 17.6353 0.479306 17.856 0.702007L20.0628 2.91511C20.5114 3.3496 20.7714 3.94374 20.7865 4.56899Z" fill="#3CBFF0"/>
<path d="M15.0494 5.82031H5.73704C5.42832 5.82031 5.13224 5.94076 4.91394 6.15517C4.69564 6.36957 4.573 6.66036 4.573 6.96357V13.8231C4.573 14.1263 4.69564 14.4171 4.91394 14.6315C5.13224 14.8459 5.42832 14.9664 5.73704 14.9664H15.0494C15.3581 14.9664 15.6542 14.8459 15.8725 14.6315C16.0908 14.4171 16.2134 14.1263 16.2134 13.8231V6.96357C16.2134 6.66036 16.0908 6.36957 15.8725 6.15517C15.6542 5.94076 15.3581 5.82031 15.0494 5.82031ZM15.0494 8.50697L10.3932 11.556L5.73704 8.50697V7.13334L10.3932 10.1818L15.0494 7.13334V8.50697Z" fill="#003370"/>
</svg>
