<svg width="15" height="15" viewBox="0 0 15 15" fill="none" xmlns="http://www.w3.org/2000/svg">
<path d="M13.4212 7.1042H15.0001C15.0001 3.05436 11.9426 0 7.88721 0V1.57889C11.0939 1.57889 13.4212 3.90222 13.4212 7.1042Z" fill="#00C9FF"/>
<path d="M7.89466 4.73666C9.55486 4.73666 10.263 5.44479 10.263 7.10499H11.8419C11.8419 4.55903 10.4406 3.15777 7.89466 3.15777V4.73666ZM10.5961 9.0336C10.4444 8.89573 10.2451 8.82219 10.0402 8.82853C9.83532 8.83486 9.64091 8.92056 9.49802 9.06755L7.60888 11.0104C7.15416 10.9235 6.23999 10.6385 5.29897 9.69989C4.35795 8.75808 4.07296 7.84154 3.98849 7.38998L5.92973 5.50005C6.0769 5.35726 6.16273 5.16282 6.16906 4.95787C6.1754 4.75291 6.10174 4.55354 5.96368 4.40193L3.04669 1.19442C2.90857 1.04234 2.7166 0.950095 2.51156 0.937271C2.30652 0.924447 2.10456 0.992057 1.94857 1.12574L0.235477 2.5949C0.0989909 2.73188 0.0175268 2.91419 0.00653814 3.10725C-0.00530351 3.30461 -0.231084 7.97969 3.39404 11.6064C6.55655 14.7681 10.518 14.9994 11.609 14.9994C11.7685 14.9994 11.8664 14.9947 11.8924 14.9931C12.0854 14.9823 12.2676 14.9005 12.404 14.7634L13.8723 13.0495C14.0061 12.8936 14.0739 12.6917 14.0612 12.4867C14.0485 12.2816 13.9564 12.0896 13.8044 11.9514L10.5961 9.0336Z" fill="#00C9FF"/>
</svg>
