<svg width="14" height="13" viewBox="0 0 14 13" fill="none" xmlns="http://www.w3.org/2000/svg">
<path d="M11.6904 5.99982H13.0127C13.0127 2.60807 10.452 0.0500488 7.05566 0.0500488V1.37237C9.74129 1.37237 11.6904 3.31816 11.6904 5.99982Z" fill="white"/>
<path d="M7.06197 4.01702C8.45239 4.01702 9.04545 4.61008 9.04545 6.00049H10.3678C10.3678 3.86826 9.19421 2.6947 7.06197 2.6947V4.01702ZM9.32446 7.61571C9.19742 7.50024 9.03047 7.43865 8.85887 7.44396C8.68728 7.44926 8.52446 7.52104 8.40479 7.64414L6.82263 9.27125C6.44181 9.19852 5.67618 8.95984 4.88808 8.17373C4.09998 7.38496 3.8613 6.61736 3.79056 6.23917L5.41635 4.65636C5.5396 4.53677 5.61148 4.37393 5.61679 4.20228C5.62209 4.03063 5.5604 3.86366 5.44478 3.73669L3.00179 1.0504C2.88612 0.923029 2.72535 0.845771 2.55363 0.835031C2.38191 0.82429 2.21277 0.880914 2.08212 0.992876L0.647407 2.22329C0.5331 2.33801 0.464874 2.4907 0.455671 2.65239C0.445754 2.81767 0.256662 6.73306 3.2927 9.77042C5.94131 12.4184 9.259 12.6121 10.1727 12.6121C10.3063 12.6121 10.3883 12.6081 10.4101 12.6068C10.5717 12.5977 10.7243 12.5292 10.8385 12.4144L12.0683 10.979C12.1803 10.8485 12.2371 10.6794 12.2264 10.5077C12.2158 10.3359 12.1387 10.1751 12.0114 10.0594L9.32446 7.61571Z" fill="white"/>
</svg>
